<?xml version="1.0" encoding="iso-8859-1"?>
<!-- Generator: Adobe Illustrator 18.1.1, SVG Export Plug-In . SVG Version: 6.00 Build 0)  -->
<svg version="1.1" id="Capa_1" xmlns="http://www.w3.org/2000/svg" xmlns:xlink="http://www.w3.org/1999/xlink" x="0px" y="0px"
	 viewBox="0 0 295.858 295.858" style="enable-background:new 0 0 295.858 295.858;" xml:space="preserve">
<g>
	<g>
		<g>
			<path style="fill:#ffffff;" d="M147.926,295.855c-2.665,0-5.33-1.017-7.364-3.051L3.051,155.293
				C1.099,153.341,0,150.687,0,147.929c0-2.763,1.099-5.412,3.051-7.364L140.567,3.054c4.068-4.068,10.661-4.068,14.729,0
				l137.51,137.51c1.953,1.953,3.051,4.607,3.051,7.364s-1.099,5.412-3.051,7.364l-137.516,137.51
				C153.257,294.838,150.591,295.855,147.926,295.855z M25.145,147.929l122.781,122.776l122.781-122.776L147.926,25.148
				L25.145,147.929z"/>
		</g>
		<path style="fill:#ffffff;" d="M196.372,122.131l-29.055-29.055c-4.068-4.074-10.661-4.074-14.729,0
			c-4.068,4.068-4.068,10.661,0,14.729l11.199,11.199h-56.942c-5.755,0-10.421,4.667-10.421,10.421v65.981
			c0,5.755,4.661,10.421,10.421,10.421c5.76,0,10.421-4.667,10.421-10.421v-55.566h46.673l-9.203,9.203
			c-4.068,4.074-4.068,10.661,0,14.729c2.04,2.034,4.699,3.057,7.364,3.057c2.665,0,5.33-1.023,7.365-3.057l26.912-26.912
			C200.446,132.792,200.446,126.2,196.372,122.131z"/>
	</g>
</g>
<g>
</g>
<g>
</g>
<g>
</g>
<g>
</g>
<g>
</g>
<g>
</g>
<g>
</g>
<g>
</g>
<g>
</g>
<g>
</g>
<g>
</g>
<g>
</g>
<g>
</g>
<g>
</g>
<g>
</g>
</svg>
